<?xml version="1.0" encoding="UTF-8"?>
<svg id="Layer_1" data-name="Layer 1" xmlns="http://www.w3.org/2000/svg" viewBox="0 0 256 256">
  <defs>
    <style>
      .cls-1 {
        fill: #204f9a;
      }

      .cls-2 {
        fill: #20509a;
      }

      .cls-3 {
        fill: #fffefe;
      }
    </style>
  </defs>
  <g id="Generative_Object" data-name="Generative Object">
    <g>
      <path class="cls-1" d="M131.41,229.92c-5.54,3.54-11.88,2.48-17.01-.74l-47.41-29.77-51.85-32.43c-2.58-1.61-3.95-3.94-4.16-6.68-.21-2.74.83-5.56,3.26-7.14l6.76-4.42-6.66-4.25c-2.52-1.61-3.53-4.28-3.39-7.07.15-2.76,1.68-5,4.13-6.65l5.87-3.95-6.18-3.85c-2.39-1.49-3.78-3.84-3.85-6.49s.82-5.57,3.43-7.21L147.7,25.16c3.83-2.42,8.4-1.1,11.94,1.08l77.55,47.59c2.85,1.75,4.58,4.25,4.86,7.57l2.19,25.7c.49,5.78-4.09,10.13-9.26,12.58l7.04,4.33c3.87,3.04,4.14,9.29.43,12.6l-7.46,5.17,5.33,3.24c2.54,1.54,4.28,3.68,4.58,6.34.33,2.9-.31,6.24-3.07,8.01l-110.42,70.54Z"/>
      <path class="cls-3" d="M118.92,200.27l-99.66-62.3,9.63-6.21,87.75,54.63c4.51,2.81,10.72,2.07,15.02-.67l95.85-61.14,9.34,6.29-109.12,69.83c-2.81,1.8-5.95,1.48-8.8-.43Z"/>
      <path class="cls-3" d="M19.25,159.92l9.38-6.48,27.73,17.41,58.1,36.3c5.8,3.62,11.93,4,17.81.24l94.96-60.72,9.71,6.18-108.14,69.14c-3.62,2.31-6.66,2.49-10.35.15l-23.49-14.91-75.7-47.33Z"/>
      <g>
        <path class="cls-3" d="M154.11,130.87c2.42-1.71,3.98-3.44,2.43-6.16-1.15-2.02-4.26-2.7-6.45-1.06-8.76,6.56-18.96,9.89-30.02,9.29-6.45-.35-12.61-1.78-17.94-5.32-7.23-4.81-10.2-13.05-5.15-20.05,2.39-3.31,5.54-6.01,9.11-8.09,2.15-1.25,3.09-3.37,2.03-5.59-.88-1.84-3.53-3.07-5.63-1.82-4.25,2.52-8.12,5.53-11.31,9.28-7.05,8.29-6.83,20.13.73,28.12l-16.84,10.67-8.52,5.45-47.5-29.68L151.46,32.31c1.39-.88,2.66.24,3.77.92l75.52,46.28-12.2,7.96c-2.72,1.78-3.7,5.08-3.2,8.31.43,2.79,2.49,5,5.19,6.67l13.23,8.19-11.24,7.47-95.16,60.75c-2.59,1.65-5.47,1.24-7.94-.3l-45.24-28.21,24.21-15.44c5.74,3.49,11.72,5.37,18.29,5.95,13.47,1.48,26.35-2.17,37.42-9.98Z"/>
        <path class="cls-2" d="M140.82,122.34c-9.15,5.83-26.09,7.31-34.96-.1-4.66-3.9-4.8-10.13-.74-14.51,1.65-1.78,3.46-3.18,5.6-4.55l29.8-19.05c5.37-3.43,11.11-5.22,17.53-5.13,9.18.12,19.57,4.9,19.59,13.6,0,3.46-1.64,7.32-4.94,9.43l-31.87,20.31Z"/>
      </g>
    </g>
  </g>
</svg>
